<svg xmlns="http://www.w3.org/2000/svg" width="70" height="30.82" viewBox="0 0 70 30.82">
    <defs>
        <style>
            .cls-1{fill:#fff}
        </style>
    </defs>
    <g id="Group_20450" transform="translate(-72 -884)">
        <g id="Artboard_1" transform="translate(72 884)">
            <path id="Path_29559" d="M113.62 50.647q.37-1.273.733-2.55c.407-1.42.81-2.843 1.227-4.263a1.361 1.361 0 0 1 1.54-1.153c.507 0 1 .023 1.517 0 .453-.027.453.153.333.507-.6 1.747-1.18 3.5-1.773 5.25-.937 2.77-1.867 5.54-2.813 8.307a3.156 3.156 0 0 1-3.483 2.523h-1.213c-.333 0-.44-.153-.433-.46 0-.573.027-1.147 0-1.72 0-.287.1-.393.38-.37h.607c1.42-.027 2.057-.907 1.6-2.257-.86-2.53-1.74-5.053-2.617-7.577q-.655-1.88-1.333-3.753c-.1-.293-.093-.467.31-.453.84.027 1.667.02 2.527 0a.49.49 0 0 1 .567.427q1 3.593 2.04 7.183c.037.123.1.243.143.363z" class="cls-1" transform="translate(-71.89 -28.447)"/>
            <path id="Path_29560" d="M62.678 46.042c-.22 0-.44-.017-.667 0a1.287 1.287 0 0 1-1.333-.593 2.1 2.1 0 0 0-3.54.78 6.333 6.333 0 0 0 .03 4.307 2.167 2.167 0 0 0 3.432.864c1.067-1.077 2.29-.727 3.493-.8.263 0 .217.17.167.353a4.687 4.687 0 0 1-4.61 3.577 7 7 0 0 1-2.96-.5 4.513 4.513 0 0 1-2.593-3.16 9.913 9.913 0 0 1-.05-5 4.427 4.427 0 0 1 3.69-3.557 6.277 6.277 0 0 1 4.727.643 4.431 4.431 0 0 1 1.836 2.796c.06.243-.047.293-.26.29-.452-.006-.909 0-1.362 0z" class="cls-1" transform="translate(-35.835 -28.096)"/>
            <path id="Path_29561" d="M6.74 37.507q.54-1.527 1.087-3.033 1.667-4.723 3.36-9.453a1.667 1.667 0 0 1 1.667-1.237c.94-.027 1.883 0 2.827-.02a.43.43 0 0 1 .473.333q.877 2.47 1.767 4.937a.5.5 0 0 1-.117.55 28.423 28.423 0 0 1-2.194 2.286c-.23.22-.31.133-.393-.127-.387-1.217-.79-2.43-1.187-3.643l-.2-.543-.793 2.413q-.75 2.333-1.49 4.667a1.233 1.233 0 0 1-.557.737 40.7 40.7 0 0 1-3.83 2.036.487.487 0 0 1-.42.1z" class="cls-1" transform="translate(-4.493 -15.84)"/>
            <path id="Path_29562" d="M16.807 10.18a21.933 21.933 0 0 1-3.637 6.077 36.517 36.517 0 0 1-8.25 7.117 33.4 33.4 0 0 1-3.447 2 1.263 1.263 0 0 1-.467.143c.373-.82.28-1.783 1.333-2.333A35.743 35.743 0 0 0 12.3 15.8a19.935 19.935 0 0 0 4.83-8.333 16.633 16.633 0 0 0 .537-3.893.467.467 0 0 0-.137-.453l-1.047 1.262-.11-.05.934-4.306.116-.027q.853 2.107 1.713 4.207l-.1.073-1.166-1.253a6.813 6.813 0 0 0 .173 1.64 16.153 16.153 0 0 1-1.16 8.15 25.631 25.631 0 0 1-6.44 8.977 39.207 39.207 0 0 1-10.047 7c-.087.043-.18.08-.4.17.233-.76.42-1.42.667-2.067.043-.123.26-.2.407-.273a40.457 40.457 0 0 0 10.2-7.29 23.837 23.837 0 0 0 5.033-7c.277-.607.437-1.25.667-1.867.21-1.21.637-2.373.74-3.467a15.943 15.943 0 0 1-.437 2.087 3.257 3.257 0 0 1-.466 1.093z" class="cls-1"/>
            <path id="Path_29563" d="M90.188 39.171v-6.333c0-.37.087-.52.477-.487s.843 0 1.257.05a1.47 1.47 0 0 1 1.278 1.457v1.517c0 .293.063.443.39.407.233-.023.47 0 .707 0 .78 0 .78 0 .71.787a1.393 1.393 0 0 1-1.423 1.35c-.333 0-.387.113-.383.41v6c0 .72.213.93.93.94.873 0 .873 0 .873.88v1.11c0 .22-.047.333-.3.333a16 16 0 0 1-3.07-.09 1.5 1.5 0 0 1-1.353-1.27 5.039 5.039 0 0 1-.09-1c-.006-2.001-.003-4.041-.003-6.061z" class="cls-1" transform="translate(-60.125 -21.564)"/>
            <path id="Path_29564" d="M159.316 50.147a9.622 9.622 0 0 0 .863-2.333c.477-1.43.9-2.88 1.367-4.313a1.461 1.461 0 0 1 1.61-1.15c2.05 0 4.1 0 6.183.117-.627.22-1.25.447-1.88.667-.7.23-1.4.45-2.107.667a.507.507 0 0 0-.333.38c-.517 1.47-1.043 2.933-1.563 4.4-.65 1.823-1.307 3.647-1.943 5.477a.517.517 0 0 1-.58.417h-2.423c-.113 0-.24.027-.333-.087a.51.51 0 0 1-.037-.523c.4-1.2.777-2.417 1.113-3.64.003-.039.036-.059.063-.079z" class="cls-1" transform="translate(-105.389 -28.233)"/>
            <path id="Path_29565" d="M150.826 50.393a5.662 5.662 0 0 1-.433 1.78c-.217.823-.57 1.607-.713 2.45-.25.063-.263-.13-.333-.287l-3.477-9.95c-.157-.443-.31-.887-.47-1.333-.077-.207-.1-.333.2-.333h2.73a.3.3 0 0 1 .333.277c.633 2.217 1.277 4.427 1.9 6.643.093.253.167.507.263.753z" class="cls-1" transform="translate(-96.9 -28.48)"/>
            <path id="Path_29566" d="M39.644 52.13c.737 2.05 1.42 3.957 2.107 5.877.333.887.633 1.773.96 2.667.107.293.08.43-.283.423q-1.59-.02-3.18 0a.447.447 0 0 1-.5-.373c-.513-1.6-1.037-3.2-1.557-4.793-.047-.14-.127-.28 0-.427a37.084 37.084 0 0 0 2.453-3.374z" class="cls-1" transform="translate(-24.75 -34.753)"/>
            <path id="Path_29567" d="M50.42 23.62a31.06 31.06 0 0 0 .95-3.46 11.215 11.215 0 0 1-.757 3.743c-.096-.08.154-.366-.193-.283z" class="cls-1" transform="translate(-33.613 -13.44)"/>
            <path id="Path_29568" d="M200.09 30.293l-.783-1.223h-.42v1.223h-.387v-3h1a1.06 1.06 0 0 1 .763.243.86.86 0 0 1 .257.65.83.83 0 0 1-.207.587.933.933 0 0 1-.59.28l.817 1.233zm-1.2-1.5h.567c.437 0 .667-.19.667-.577s-.22-.577-.667-.577h-.567z" class="cls-1" transform="translate(-132.333 -18.193)"/>
            <path id="Path_29569" d="M195.587 28.907a2.883 2.883 0 1 1 2.88-2.883 2.883 2.883 0 0 1-2.88 2.883zm0-5.42a2.54 2.54 0 1 0 2.547 2.537 2.54 2.54 0 0 0-2.547-2.537z" class="cls-1" transform="translate(-128.467 -15.427)"/>
        </g>
    </g>
</svg>
